<?xml version="1.0" encoding="UTF-8"?>
<svg xmlns="http://www.w3.org/2000/svg" viewBox="0 0 512 512" width="512" height="512">
  
  <g transform="translate(93.30688, 92.16)">
    <g transform="matrix(0.38912218935965504,0,0,-0.38912218935965504,0,301.4656)">
      <g transform="translate(302.9266,232.7818)">
        <path fill="#231f20" d="m 0,0 c -60.014,-3.041 -109.312,46.259 -106.27,106.272 2.605,51.386 44.359,93.138 95.745,95.741 C 49.487,205.053 98.784,155.756 95.743,95.744 93.14,44.358 51.386,2.604 0,0 M 95.877,503.287 V 311.13 c -31.947,15.406 -67.944,23.741 -105.96,22.973 -123.819,-2.5 -227.95,-108.533 -228.324,-232.377 -0.397,-131.257 107.677,-237.371 239.654,-233.775 126.646,3.45 226.635,109.107 226.635,235.8 v 399.536 c 0,3.33 -2.7,6.029 -6.029,6.029 H 101.906 c -3.33,0 -6.029,-2.699 -6.029,-6.029"/>
      </g>
    </g>
  </g>
</svg>