<?xml version="1.0" encoding="UTF-8" standalone="no"?>
<svg
   xmlns:dc="http://purl.org/dc/elements/1.1/"
   xmlns:cc="http://creativecommons.org/ns#"
   xmlns:rdf="http://www.w3.org/1999/02/22-rdf-syntax-ns#"
   xmlns:svg="http://www.w3.org/2000/svg"
   xmlns="http://www.w3.org/2000/svg"
   viewBox="0 0 1122.52 793.70135"
   height="793.70135"
   width="1122.52"
   xml:space="preserve"
   id="svg2"
   version="1.1"><metadata
     id="metadata8"><rdf:RDF><cc:Work
         rdf:about=""><dc:format>image/svg+xml</dc:format><dc:type
           rdf:resource="http://purl.org/dc/dcmitype/StillImage" /></cc:Work></rdf:RDF></metadata><defs
     id="defs6"><clipPath
       id="clipPath18"
       clipPathUnits="userSpaceOnUse"><path
         id="path16"
         d="M 0,595.276 H 841.89 V 0 H 0 Z" /></clipPath></defs><g
     transform="matrix(1.3333333,0,0,-1.3333333,0,793.70133)"
     id="g10"><g
       id="g12"><g
         clip-path="url(#clipPath18)"
         id="g14"><g
           transform="translate(303.6034,326.9844)"
           id="g20"><path
             id="path22"
             style="fill:#1d6434;fill-opacity:1;fill-rule:nonzero;stroke:none"
             d="m 0,0 c 0,7.098 -4.598,11.996 -11.396,11.996 -6.798,0 -11.398,-4.898 -11.398,-11.996 0,-7.098 4.6,-11.996 11.398,-11.996 C -4.598,-11.996 0,-7.098 0,0 m -37.988,0.6 c 0,17.194 12.796,25.392 23.992,25.392 5.898,0 10.896,-2.3 13.996,-6.698 V 46.286 H 14.996 V 0.5 c 0,-16.594 -11.198,-26.492 -26.292,-26.492 -15.696,0 -26.692,10.699 -26.692,26.592" /></g><g
           transform="translate(358.9852,326.9844)"
           id="g24"><path
             id="path26"
             style="fill:#1d6434;fill-opacity:1;fill-rule:nonzero;stroke:none"
             d="m 0,0 c 0,7.098 -4.598,11.996 -11.396,11.996 -6.798,0 -11.399,-4.898 -11.399,-11.996 0,-7.098 4.601,-11.996 11.399,-11.996 C -4.598,-11.996 0,-7.098 0,0 m -37.988,0 c 0,14.996 10.996,25.992 26.592,25.992 15.594,0 26.589,-10.996 26.589,-25.992 0,-14.996 -10.995,-25.992 -26.589,-25.992 -15.596,0 -26.592,10.996 -26.592,25.992" /></g><g
           transform="translate(374.5815,317.2888)"
           id="g28"><path
             id="path30"
             style="fill:#1d6434;fill-opacity:1;fill-rule:nonzero;stroke:none"
             d="m 0,0 h 14.793 c 0.1,-2.6 2.001,-3.901 6.101,-3.901 4.598,0 6.098,1.601 6.098,3.701 0,3.298 -3.6,3.598 -8.198,4.298 -6.798,1 -17.994,2.7 -17.994,14.596 0,9.996 7.895,16.994 20.194,16.994 12.296,0 19.892,-7.098 20.192,-15.994 H 26.592 c -0.4,2.298 -2.4,3.598 -5.401,3.598 -3.697,0 -5.197,-1.901 -5.197,-3.898 0,-3 3.6,-3.4 8.198,-4.101 7.098,-1 17.994,-2.897 17.994,-14.593 0,-10.198 -8.396,-16.997 -21.095,-16.997 C 8.395,-16.297 0.2,-9.498 0,0" /></g><g
           transform="translate(419.1647,321.7866)"
           id="g32"><path
             id="path34"
             style="fill:#1d6434;fill-opacity:1;fill-rule:nonzero;stroke:none"
             d="M 0,0 V 47.386 H 14.996 V 29.89 H 38.388 V 16.394 H 14.996 V 0 c 0,-5.198 2.401,-6.798 5.698,-6.798 3.298,0 5.698,1.6 5.698,6.798 V 1.5 H 41.388 V 0 c 0,-14.096 -8.398,-20.794 -20.694,-20.794 C 8.398,-20.794 0,-14.096 0,0" /></g><g
           transform="translate(483.5449,321.7866)"
           id="g36"><path
             id="path38"
             style="fill:#1d6434;fill-opacity:1;fill-rule:nonzero;stroke:none"
             d="M 0,0 V 47.386 H 14.996 V 29.89 H 38.388 V 16.394 H 14.996 V 0 c 0,-5.198 2.401,-6.798 5.698,-6.798 3.298,0 5.698,1.6 5.698,6.798 V 1.5 H 41.388 V 0 c 0,-14.096 -8.398,-20.794 -20.694,-20.794 C 8.398,-20.794 0,-14.096 0,0" /></g><g
           transform="translate(562.7213,326.9844)"
           id="g40"><path
             id="path42"
             style="fill:#1d6434;fill-opacity:1;fill-rule:nonzero;stroke:none"
             d="m 0,0 c 0,7.098 -4.601,11.996 -11.399,11.996 -6.798,0 -11.395,-4.898 -11.395,-11.996 0,-7.098 4.597,-11.996 11.395,-11.996 C -4.601,-11.996 0,-7.098 0,0 m -37.988,-0.6 c 0,15.896 10.996,26.592 26.689,26.592 15.497,0 26.292,-10.296 26.292,-26.492 V -24.692 H 1.197 v 8.198 c -2.597,-6.098 -8.195,-9.498 -15.293,-9.498 -10.996,0 -23.892,8.198 -23.892,25.392" /></g><g
           transform="translate(582.1125,330.3849)"
           id="g44"><path
             id="path46"
             style="fill:#1d6434;fill-opacity:1;fill-rule:nonzero;stroke:none"
             d="m 0,0 c 0,15.393 8.998,22.592 22.194,22.592 13.197,0 22.092,-7.099 22.192,-22.692 V -0.4 H 29.393 V 0 c 0,6.598 -3.001,8.595 -7.199,8.595 -4.2,0 -7.198,-1.997 -7.198,-8.595 V -28.092 H 0 Z" /></g><path
           id="path48"
           style="fill:#1d6434;fill-opacity:1;fill-rule:nonzero;stroke:none"
           d="m 628.799,351.676 h 14.996 v -49.384 h -14.996 z" /><g
           transform="translate(649.7902,330.0849)"
           id="g50"><path
             id="path52"
             style="fill:#1d6434;fill-opacity:1;fill-rule:nonzero;stroke:none"
             d="m 0,0 c 0,15.894 9.198,22.892 21.194,22.892 6.998,0 12.896,-2.701 16.594,-7.899 3.7,5.198 9.498,7.899 16.597,7.899 C 66.38,22.892 75.576,15.894 75.576,0 V -27.792 H 60.583 V 0 c 0,6.598 -3.201,8.895 -7.699,8.895 C 48.487,8.895 45.286,6.598 45.286,0 V -27.792 H 30.29 V 0 c 0,6.598 -3.198,8.895 -7.595,8.895 C 18.194,8.895 14.996,6.598 14.996,0 V -27.792 H 0 Z" /></g><g
           transform="translate(269.936,240.0441)"
           id="g54"><path
             id="path56"
             style="fill:#37ab9c;fill-opacity:1;fill-rule:nonzero;stroke:none"
             d="M 0,0 V 42.48 H 8.373 V 27.058 h 23.971 v -7.67 H 8.373 V 0 c 0,-6.875 3.611,-9.873 9.078,-9.873 5.464,0 9.164,2.909 9.164,9.873 v 0.969 h 8.287 V 0 c 0,-11.81 -7.053,-17.628 -17.451,-17.628 C 7.05,-17.628 0,-11.81 0,0" /></g><g
           transform="translate(345.6462,249.7397)"
           id="g58"><path
             id="path60"
             style="fill:#37ab9c;fill-opacity:1;fill-rule:nonzero;stroke:none"
             d="m 0,0 c -1.674,6.961 -7.404,10.753 -14.453,10.753 -7.23,0 -12.694,-3.881 -14.368,-10.753 z m -37.899,-4.409 c 0,13.222 9.695,22.917 23.446,22.917 13.747,0 23.266,-9.695 23.266,-22.917 v -3.083 h -37.897 c 1.232,-7.756 7.05,-12.076 14.631,-12.076 5.64,0 9.607,1.763 12.161,5.552 h 9.256 c -3.349,-8.107 -11.282,-13.308 -21.417,-13.308 -13.751,0 -23.446,9.696 -23.446,22.915" /></g><g
           transform="translate(360.6339,286.1389)"
           id="g62"><path
             id="path64"
             style="fill:#37ab9c;fill-opacity:1;fill-rule:nonzero;stroke:none"
             d="m 0,0 h 8.373 v -38.339 l 20.005,19.302 H 39.397 L 16.657,-40.28 40.191,-62.577 H 28.995 L 8.373,-42.306 V -62.577 H 0 Z" /></g><g
           transform="translate(404.2656,246.2135)"
           id="g66"><path
             id="path68"
             style="fill:#37ab9c;fill-opacity:1;fill-rule:nonzero;stroke:none"
             d="M 0,0 C 0,14.542 8.635,22.034 21.503,22.034 34.37,22.034 43.009,14.631 43.009,0 V -22.652 H 34.636 V 0 c 0,9.43 -5.201,14.279 -13.133,14.279 C 13.57,14.279 8.373,9.43 8.373,0 V -22.652 H 0 Z" /></g><g
           transform="translate(490.2886,245.3305)"
           id="g70"><path
             id="path72"
             style="fill:#37ab9c;fill-opacity:1;fill-rule:nonzero;stroke:none"
             d="m 0,0 c 0,8.815 -5.992,15.162 -14.982,15.162 -8.99,0 -14.985,-6.347 -14.985,-15.162 0,-8.813 5.995,-15.159 14.985,-15.159 C -5.992,-15.159 0,-8.813 0,0 m -38.428,0 c 0,13.222 9.696,22.917 23.446,22.917 13.75,0 23.443,-9.695 23.443,-22.917 0,-13.219 -9.693,-22.915 -23.443,-22.915 -13.75,0 -23.446,9.696 -23.446,22.915" /></g><path
           id="path74"
           style="fill:#37ab9c;fill-opacity:1;fill-rule:nonzero;stroke:none"
           d="m 504.925,286.139 h 8.373 v -62.577 h -8.373 z" /><g
           transform="translate(557.8921,245.3305)"
           id="g76"><path
             id="path78"
             style="fill:#37ab9c;fill-opacity:1;fill-rule:nonzero;stroke:none"
             d="m 0,0 c 0,8.815 -5.992,15.162 -14.982,15.162 -8.99,0 -14.985,-6.347 -14.985,-15.162 0,-8.813 5.995,-15.159 14.985,-15.159 C -5.992,-15.159 0,-8.813 0,0 m -38.428,0 c 0,13.222 9.696,22.917 23.446,22.917 13.75,0 23.443,-9.695 23.443,-22.917 0,-13.219 -9.693,-22.915 -23.443,-22.915 -13.75,0 -23.446,9.696 -23.446,22.915" /></g><g
           transform="translate(570.8538,279.8809)"
           id="g80"><path
             id="path82"
             style="fill:#37ab9c;fill-opacity:1;fill-rule:nonzero;stroke:none"
             d="m 0,0 c 0,3.349 2.466,5.818 5.815,5.818 3.349,0 5.818,-2.469 5.818,-5.818 0,-3.349 -2.469,-5.904 -5.818,-5.904 C 2.466,-5.904 0,-3.349 0,0 m -6.701,-68.306 h 0.972 c 5.375,0 7.403,2.38 7.403,8.549 v 46.978 h 8.373 v -46.449 c 0,-10.753 -4.232,-16.305 -14.985,-16.305 h -1.763 z" /></g><path
           id="path84"
           style="fill:#37ab9c;fill-opacity:1;fill-rule:nonzero;stroke:none"
           d="m 590.334,267.102 h 8.373 v -43.54 h -8.373 z m -1.678,12.779 c 0,3.349 2.469,5.818 5.818,5.818 3.349,0 5.818,-2.469 5.818,-5.818 0,-3.349 -2.469,-5.904 -5.818,-5.904 -3.349,0 -5.818,2.555 -5.818,5.904" /><path
           id="path86"
           style="fill:#37ab9c;fill-opacity:1;fill-rule:nonzero;stroke:none"
           d="m 608.139,286.139 h 8.373 v -62.577 h -8.373 z" /><g
           transform="translate(660.5774,249.7397)"
           id="g88"><path
             id="path90"
             style="fill:#37ab9c;fill-opacity:1;fill-rule:nonzero;stroke:none"
             d="M 0,0 C -1.674,6.961 -7.404,10.753 -14.453,10.753 -21.68,10.753 -27.146,6.872 -28.821,0 Z m -37.899,-4.409 c 0,13.222 9.695,22.917 23.446,22.917 13.75,0 23.268,-9.695 23.268,-22.917 v -3.083 h -37.899 c 1.235,-7.756 7.05,-12.076 14.631,-12.076 5.64,0 9.607,1.763 12.161,5.552 h 9.256 c -3.349,-8.107 -11.282,-13.308 -21.417,-13.308 -13.751,0 -23.446,9.696 -23.446,22.915" /></g><g
           transform="translate(673.9792,249.2111)"
           id="g92"><path
             id="path94"
             style="fill:#37ab9c;fill-opacity:1;fill-rule:nonzero;stroke:none"
             d="m 0,0 c 0,12.867 7.581,19.037 18.774,19.037 11.104,0 18.685,-6.17 18.685,-19.126 V -0.531 H 29.175 V 0 c 0,8.018 -4.232,11.282 -10.401,11.282 C 12.516,11.282 8.375,8.018 8.375,0 V -25.649 H 0 Z" /></g><path
           id="path96"
           style="fill:#37ab9c;fill-opacity:1;fill-rule:nonzero;stroke:none"
           d="m 716.465,267.102 h 8.373 v -43.54 h -8.373 z m -1.677,12.779 c 0,3.349 2.469,5.818 5.818,5.818 3.349,0 5.817,-2.469 5.817,-5.818 0,-3.349 -2.468,-5.904 -5.817,-5.904 -3.349,0 -5.818,2.555 -5.818,5.904" /><g
           transform="translate(230.88,271.8984)"
           id="g98"><path
             id="path100"
             style="fill:#37ab9c;fill-opacity:1;fill-rule:nonzero;stroke:none"
             d="m 0,0 c -0.084,-1.86 -0.95,-3.247 -2.682,-4.101 -1.916,-0.944 -3.614,-0.414 -5.044,0.909 -1.67,1.545 -3.345,3.082 -5.108,4.517 -5.37,4.37 -11.288,7.789 -17.749,10.289 -6.159,2.384 -12.554,3.729 -19.109,4.232 -5.805,0.446 -11.591,-0.01 -17.304,-1.138 -8.773,-1.734 -16.856,-5.161 -24.255,-10.174 -3.327,-2.255 -6.338,-4.915 -9.265,-7.661 -1.947,-1.828 -4.406,-1.949 -6.214,-0.21 -2.08,2 -2.234,4.638 -0.262,6.64 2.851,2.895 5.968,5.498 9.251,7.887 7.252,5.277 15.273,8.981 23.885,11.401 3.343,0.94 6.779,1.457 10.21,2.026 2.935,0.487 5.863,0.369 8.785,0.592 2.515,0.192 5.087,0.024 7.604,-0.253 6.44,-0.707 12.747,-2.048 18.847,-4.307 5.931,-2.197 11.485,-5.095 16.684,-8.686 C -8.085,9.447 -4.676,6.657 -1.578,3.488 -0.628,2.516 -0.066,1.407 0,0" /></g><g
           transform="translate(176.5553,266.6867)"
           id="g102"><path
             id="path104"
             style="fill:#37ab9c;fill-opacity:1;fill-rule:nonzero;stroke:none"
             d="m 0,0 c -9.31,0.103 -17.733,-2.683 -25.353,-7.94 -1.976,-1.362 -3.816,-2.927 -5.562,-4.599 -2.891,-2.769 -6.748,-1.941 -7.937,1.651 -0.608,1.833 0.077,3.293 1.341,4.608 4.479,4.661 9.755,8.192 15.614,10.829 5.94,2.672 12.142,4.224 18.707,4.63 7.944,0.491 15.565,-0.675 22.915,-3.547 5.722,-2.236 10.99,-5.321 15.564,-9.493 0.889,-0.811 1.832,-1.57 2.661,-2.438 1.751,-1.835 1.865,-4.541 0.337,-6.342 -1.542,-1.817 -4.227,-2.148 -6.288,-0.565 -2.045,1.571 -3.79,3.51 -5.926,4.99 C 19.729,-3.822 12.808,-0.992 5.075,-0.235 3.381,-0.069 1.696,-0.019 0,0" /></g><g
           transform="translate(175.1583,245.2377)"
           id="g106"><path
             id="path108"
             style="fill:#37ab9c;fill-opacity:1;fill-rule:nonzero;stroke:none"
             d="m 0,0 c -3.573,-0.051 -8.292,-1.659 -12.224,-5.388 -1.485,-1.407 -3.192,-2.268 -5.353,-1.547 -2.732,0.912 -3.97,4.318 -2.307,6.68 1.868,2.654 4.563,4.348 7.323,5.908 C -8.654,7.86 -4.38,8.846 0.049,9.301 1.67,9.467 3.264,9.284 4.846,9.076 11.487,8.205 17.358,5.674 22.112,0.826 24.273,-1.379 24.368,-3.913 22.361,-5.927 20.527,-7.769 17.775,-7.638 15.669,-5.609 11.985,-2.059 6.904,-0.012 0,0" /></g><g
           transform="translate(176.6952,232.7978)"
           id="g110"><path
             id="path112"
             style="fill:#37ab9c;fill-opacity:1;fill-rule:nonzero;stroke:none"
             d="M 0,0 C 2.586,-0.024 4.601,-2.034 4.599,-4.587 4.597,-7.046 2.38,-9.288 0.002,-9.236 -2.338,-9.185 -4.675,-6.798 -4.614,-4.522 -4.55,-2.182 -2.302,0.022 0,0" /></g><g
           transform="translate(237.4005,307.3057)"
           id="g114"><path
             id="path116"
             style="fill:#1d6434;fill-opacity:1;fill-rule:nonzero;stroke:none"
             d="m 0,0 c -0.666,3.834 -2.07,7.475 -3.619,11.041 -3.012,6.937 -6.741,13.486 -10.979,19.735 -4.027,5.94 -8.251,11.739 -12.794,17.307 -4.707,5.769 -9.563,11.401 -14.552,16.926 -1.796,1.989 -3.735,3.833 -5.527,5.82 -3.857,4.277 -8.072,8.203 -12.108,12.305 -0.352,0.357 -0.712,0.516 -1.08,0.484 -0.369,0.032 -0.729,-0.127 -1.081,-0.484 -4.036,-4.102 -8.25,-8.028 -12.107,-12.305 -1.792,-1.987 -3.732,-3.831 -5.527,-5.82 -4.989,-5.525 -9.846,-11.157 -14.553,-16.926 -4.543,-5.568 -8.766,-11.367 -12.794,-17.307 -4.237,-6.249 -7.967,-12.798 -10.979,-19.735 -1.548,-3.566 -2.953,-7.207 -3.619,-11.041 -1.278,-7.36 -0.267,-15.541 0.362,-19.232 0.209,-1.225 0.639,-1.449 1.545,-0.813 16.216,12.631 36.605,20.157 58.753,20.157 22.147,0 42.536,-7.526 58.753,-20.157 0.905,-0.636 1.336,-0.412 1.544,0.813 C 0.268,-15.541 1.278,-7.36 0,0" /></g></g></g></g></svg>